<svg width="24" height="24" viewBox="0 0 24 24" fill="none" xmlns="http://www.w3.org/2000/svg">
<g clip-path="url(#clip0_131_11)">
<path fill-rule="evenodd" clip-rule="evenodd" d="M14.316 6.54543V8.14907C12.9677 8.1938 11.7011 8.45453 10.7019 8.89962C10.1542 9.14289 9.62623 9.46907 9.21604 9.89889C9.12332 9.99707 9.03277 10.104 8.94986 10.2185C7.65495 10.1705 6.52477 9.91634 5.71314 9.55416C5.25932 9.35234 4.93423 9.12871 4.73241 8.91598C4.62363 8.8111 4.54298 8.68055 4.49786 8.53634V6.54543C4.49786 5.33998 6.69495 4.36362 9.40695 4.36362C12.1179 4.36362 14.316 5.33998 14.316 6.54543ZM12.8346 6.57598C12.8346 7.12034 11.2997 7.56107 9.40695 7.56107C7.51423 7.56107 5.97823 7.12034 5.97823 6.57598C5.97823 6.03162 7.51314 5.5898 9.40586 5.5898C11.2997 5.5898 12.8346 6.03053 12.8346 6.57598Z" fill="url(#paint0_linear_131_11)"/>
<path fill-rule="evenodd" clip-rule="evenodd" d="M9.81823 17.4545V15.5967C10.0233 15.7233 10.2448 15.8389 10.4782 15.9425C11.5964 16.4422 13.0964 16.7334 14.7273 16.7334C16.3571 16.7334 17.8582 16.4422 18.9764 15.9425C19.2099 15.8389 19.4313 15.7243 19.6364 15.5967V17.4545C19.6364 18.6545 17.4546 19.6363 14.7273 19.6363C12 19.6363 9.81823 18.6545 9.81823 17.4545ZM10.0539 14.0585C9.94485 13.9541 9.86382 13.8239 9.81823 13.68V11.688C9.81823 10.4836 12.0164 9.50616 14.7273 9.50616C17.4382 9.50616 19.6364 10.4836 19.6364 11.688V13.68C19.591 13.8243 19.51 13.9549 19.4008 14.0596C19.199 14.2723 18.875 14.496 18.4211 14.6989C17.5157 15.1025 16.212 15.3709 14.7273 15.3709C13.2426 15.3709 11.94 15.1025 11.0335 14.6989C10.5797 14.496 10.2557 14.2723 10.0539 14.0585ZM18.155 11.7185C18.155 12.264 16.62 12.7047 14.7273 12.7047C12.8335 12.7047 11.2997 12.2629 11.2997 11.7185C11.2997 11.1742 12.8335 10.7323 14.7273 10.7323C16.62 10.7323 18.155 11.1742 18.155 11.7185Z" fill="url(#paint1_linear_131_11)"/>
<path d="M4.49786 10.4542V12.312C4.49786 13.368 6.18877 14.256 8.45459 14.4523V11.688L8.45786 11.5571C7.20005 11.4676 6.05459 11.2003 5.15677 10.8C4.92973 10.6994 4.70961 10.5839 4.49786 10.4542Z" fill="url(#paint2_linear_131_11)"/>
</g>
<defs>
<linearGradient id="paint0_linear_131_11" x1="5.99994" y1="3.49997" x2="18.9999" y2="20.5" gradientUnits="userSpaceOnUse">
<stop stop-color="#13CA0F"/>
<stop offset="1" stop-color="#0DD0B8"/>
</linearGradient>
<linearGradient id="paint1_linear_131_11" x1="5.99994" y1="3.49997" x2="18.9999" y2="20.5" gradientUnits="userSpaceOnUse">
<stop stop-color="#13CA0F"/>
<stop offset="1" stop-color="#0DD0B8"/>
</linearGradient>
<linearGradient id="paint2_linear_131_11" x1="5.99994" y1="3.49997" x2="18.9999" y2="20.5" gradientUnits="userSpaceOnUse">
<stop stop-color="#13CA0F"/>
<stop offset="1" stop-color="#0DD0B8"/>
</linearGradient>
<clipPath id="clip0_131_11">
<rect width="15.2727" height="15.2727" fill="white" transform="translate(4.36365 4.36363)"/>
</clipPath>
</defs>
</svg>
