<svg width="521" height="140" viewBox="0 0 521 140" fill="none" xmlns="http://www.w3.org/2000/svg">
<path d="M28.6719 37.9453H60.8594C65.5469 37.9453 69.6094 38.4531 73.0469 39.4688C76.4844 40.4844 79.3359 41.9557 81.6016 43.8828C83.8672 45.7839 85.5469 48.1146 86.6406 50.875C87.7604 53.6354 88.3203 56.7474 88.3203 60.2109C88.3203 63.4661 87.7734 66.474 86.6797 69.2344C85.5859 71.9948 83.9062 74.3906 81.6406 76.4219C79.401 78.4271 76.5625 80.0026 73.125 81.1484C69.6875 82.2682 65.625 82.8281 60.9375 82.8281L41.0547 82.7891V99H28.6719V37.9453ZM61.1719 72.0859C63.5156 72.0859 65.5599 71.8125 67.3047 71.2656C69.0755 70.6927 70.5469 69.8984 71.7188 68.8828C72.9167 67.8411 73.8021 66.5911 74.375 65.1328C74.974 63.6484 75.2734 62.0078 75.2734 60.2109C75.2734 56.5911 74.0885 53.7786 71.7188 51.7734C69.375 49.7422 65.8594 48.7266 61.1719 48.7266H41.0547V72.0859H61.1719ZM106.523 46.6172C105.378 46.6172 104.336 46.4609 103.398 46.1484C102.487 45.8099 101.706 45.3672 101.055 44.8203C100.404 44.2474 99.8958 43.5964 99.5312 42.8672C99.1927 42.112 99.0234 41.3177 99.0234 40.4844C99.0234 39.625 99.1927 38.8307 99.5312 38.1016C99.8958 37.3464 100.404 36.6953 101.055 36.1484C101.706 35.6016 102.487 35.1719 103.398 34.8594C104.336 34.5208 105.378 34.3516 106.523 34.3516C107.695 34.3516 108.737 34.5208 109.648 34.8594C110.586 35.1719 111.38 35.6016 112.031 36.1484C112.682 36.6953 113.177 37.3464 113.516 38.1016C113.88 38.8307 114.062 39.625 114.062 40.4844C114.062 41.3177 113.88 42.112 113.516 42.8672C113.177 43.5964 112.682 44.2474 112.031 44.8203C111.38 45.3672 110.586 45.8099 109.648 46.1484C108.737 46.4609 107.695 46.6172 106.523 46.6172ZM100.742 52.9062H112.305V99H100.742V52.9062ZM139.102 75.9531L120.039 52.8672H134.805L146.367 66.9297L157.344 52.8672H171.758L153.828 75.9141L172.891 99H158.125L146.211 84.5859L135.156 99H120.742L139.102 75.9531ZM186.367 46.6172C185.221 46.6172 184.18 46.4609 183.242 46.1484C182.331 45.8099 181.549 45.3672 180.898 44.8203C180.247 44.2474 179.74 43.5964 179.375 42.8672C179.036 42.112 178.867 41.3177 178.867 40.4844C178.867 39.625 179.036 38.8307 179.375 38.1016C179.74 37.3464 180.247 36.6953 180.898 36.1484C181.549 35.6016 182.331 35.1719 183.242 34.8594C184.18 34.5208 185.221 34.3516 186.367 34.3516C187.539 34.3516 188.581 34.5208 189.492 34.8594C190.43 35.1719 191.224 35.6016 191.875 36.1484C192.526 36.6953 193.021 37.3464 193.359 38.1016C193.724 38.8307 193.906 39.625 193.906 40.4844C193.906 41.3177 193.724 42.112 193.359 42.8672C193.021 43.5964 192.526 44.2474 191.875 44.8203C191.224 45.3672 190.43 45.8099 189.492 46.1484C188.581 46.4609 187.539 46.6172 186.367 46.6172ZM180.586 52.9062H192.148V99H180.586V52.9062ZM214.219 106.812C215.677 107.333 217.161 107.763 218.672 108.102C220.182 108.466 221.641 108.753 223.047 108.961C224.479 109.195 225.846 109.352 227.148 109.43C228.451 109.534 229.609 109.586 230.625 109.586C233.698 109.586 236.367 109.208 238.633 108.453C240.924 107.724 242.826 106.734 244.336 105.484C245.872 104.234 247.018 102.776 247.773 101.109C248.529 99.4688 248.906 97.724 248.906 95.875V93.8828C247.917 94.5599 246.758 95.2109 245.43 95.8359C244.102 96.4609 242.643 97.0078 241.055 97.4766C239.466 97.9453 237.773 98.3229 235.977 98.6094C234.206 98.8958 232.37 99.0391 230.469 99.0391C226.693 99.0391 223.203 98.4792 220 97.3594C216.797 96.2135 214.023 94.625 211.68 92.5938C209.336 90.5365 207.5 88.0755 206.172 85.2109C204.87 82.3464 204.219 79.1693 204.219 75.6797C204.219 72.112 204.909 68.8828 206.289 65.9922C207.669 63.0755 209.57 60.5885 211.992 58.5312C214.44 56.474 217.331 54.8854 220.664 53.7656C223.997 52.6458 227.617 52.0859 231.523 52.0859C233.19 52.0859 234.844 52.1901 236.484 52.3984C238.125 52.6068 239.688 52.8932 241.172 53.2578C242.682 53.6224 244.089 54.0651 245.391 54.5859C246.719 55.0807 247.891 55.6276 248.906 56.2266V52.9062H260.469V93.7266C260.469 97.9193 259.831 101.63 258.555 104.859C257.279 108.089 255.404 110.797 252.93 112.984C250.482 115.198 247.435 116.865 243.789 117.984C240.143 119.13 235.964 119.703 231.25 119.703C229.557 119.703 227.799 119.625 225.977 119.469C224.154 119.339 222.318 119.13 220.469 118.844C218.646 118.583 216.836 118.258 215.039 117.867C213.268 117.503 211.562 117.073 209.922 116.578L214.219 106.812ZM216.367 75.5625C216.367 77.4115 216.732 79.1562 217.461 80.7969C218.216 82.4115 219.284 83.8307 220.664 85.0547C222.044 86.2526 223.711 87.2031 225.664 87.9062C227.617 88.5833 229.818 88.9219 232.266 88.9219C233.854 88.9219 235.43 88.7786 236.992 88.4922C238.581 88.1797 240.091 87.75 241.523 87.2031C242.982 86.6562 244.336 85.9922 245.586 85.2109C246.862 84.4297 247.969 83.5573 248.906 82.5938V67.3984C247.734 66.4609 246.497 65.6667 245.195 65.0156C243.893 64.3646 242.565 63.8307 241.211 63.4141C239.857 62.9974 238.49 62.6979 237.109 62.5156C235.729 62.3073 234.388 62.2031 233.086 62.2031C230.43 62.2031 228.06 62.5547 225.977 63.2578C223.919 63.9609 222.174 64.9245 220.742 66.1484C219.336 67.3464 218.255 68.7526 217.5 70.3672C216.745 71.9818 216.367 73.7135 216.367 75.5625ZM271.445 75.7969C271.445 72.6719 272.083 69.6901 273.359 66.8516C274.635 63.987 276.471 61.4609 278.867 59.2734C281.263 57.0859 284.193 55.3411 287.656 54.0391C291.146 52.737 295.104 52.0859 299.531 52.0859C303.932 52.0859 307.891 52.75 311.406 54.0781C314.948 55.3802 317.943 57.1771 320.391 59.4688C322.865 61.7604 324.753 64.4557 326.055 67.5547C327.383 70.6536 328.047 73.974 328.047 77.5156C328.047 77.9583 328.034 78.4401 328.008 78.9609C328.008 79.4557 327.982 79.9115 327.93 80.3281H284.336C284.831 81.7083 285.625 82.9714 286.719 84.1172C287.839 85.263 289.232 86.2526 290.898 87.0859C292.565 87.9193 294.492 88.5703 296.68 89.0391C298.867 89.4818 301.289 89.7031 303.945 89.7031C306.602 89.7031 309.245 89.4297 311.875 88.8828C314.505 88.3099 317.018 87.5938 319.414 86.7344L323.32 95.5625C321.81 96.2656 320.273 96.8906 318.711 97.4375C317.174 97.9583 315.56 98.401 313.867 98.7656C312.201 99.1042 310.443 99.3646 308.594 99.5469C306.771 99.7292 304.844 99.8203 302.812 99.8203C297.63 99.8203 293.086 99.1953 289.18 97.9453C285.273 96.6953 282.005 94.9896 279.375 92.8281C276.745 90.6667 274.766 88.1276 273.438 85.2109C272.109 82.2943 271.445 79.1562 271.445 75.7969ZM315.781 71.3047C315.365 70.0286 314.714 68.8438 313.828 67.75C312.969 66.6302 311.888 65.6667 310.586 64.8594C309.284 64.026 307.773 63.375 306.055 62.9062C304.336 62.4375 302.448 62.2031 300.391 62.2031C298.203 62.2031 296.211 62.4505 294.414 62.9453C292.617 63.4401 291.042 64.1042 289.688 64.9375C288.333 65.7708 287.201 66.7344 286.289 67.8281C285.404 68.9219 284.753 70.0807 284.336 71.3047H315.781ZM340.508 52.9062H352.07V56.8125C355.143 55.0677 358.073 53.8438 360.859 53.1406C363.672 52.4375 366.419 52.0859 369.102 52.0859C372.617 52.0859 375.872 52.6068 378.867 53.6484C381.862 54.6641 384.453 56.1875 386.641 58.2188C388.828 60.25 390.534 62.7891 391.758 65.8359C393.008 68.8568 393.633 72.3594 393.633 76.3438V99H382.109V78.2188C382.109 75.6927 381.745 73.4401 381.016 71.4609C380.312 69.4557 379.284 67.776 377.93 66.4219C376.602 65.0417 374.974 64 373.047 63.2969C371.146 62.5677 369.01 62.2031 366.641 62.2031C365.391 62.2031 364.102 62.3333 362.773 62.5938C361.471 62.8542 360.182 63.2318 358.906 63.7266C357.656 64.1953 356.445 64.7943 355.273 65.5234C354.102 66.2266 353.034 67.0339 352.07 67.9453V99H340.508V52.9062Z" fill="white"/>
<path d="M430.117 37.9453H443.242L472.773 99H459.766L454.883 88.7266H419.219L414.492 99H401.445L430.117 37.9453ZM450 78.5312L436.797 50.7969L423.945 78.5312H450ZM480.703 37.9453H493.164V99H480.703V37.9453Z" fill="url(#paint0_linear_134_390)"/>
<defs>
<linearGradient id="paint0_linear_134_390" x1="392.5" y1="44.5" x2="515.5" y2="99" gradientUnits="userSpaceOnUse">
<stop stop-color="#03FF3B"/>
<stop offset="1" stop-color="#00A15D"/>
</linearGradient>
</defs>
</svg>
